<?xml version="1.0" standalone="no"?>
<!DOCTYPE svg PUBLIC "-//W3C//DTD SVG 20010904//EN"
 "http://www.w3.org/TR/2001/REC-SVG-20010904/DTD/svg10.dtd">
<svg version="1.0" xmlns="http://www.w3.org/2000/svg"
 width="640.000000pt" height="640.000000pt" viewBox="0 0 640.000000 640.000000"
 preserveAspectRatio="xMidYMid meet">
<metadata>
Created by potrace 1.14, written by Peter Selinger 2001-2017
</metadata>
<g transform="translate(0.000000,640.000000) scale(0.100000,-0.100000)"
fill="#000000" stroke="none">
<path d="M1265 6350 c-22 -5 -58 -11 -80 -14 -164 -26 -360 -106 -523 -213
-182 -120 -357 -314 -460 -512 -46 -88 -106 -241 -116 -294 -2 -12 -9 -40 -14
-62 -6 -22 -15 -65 -19 -95 -10 -69 -11 -3848 -1 -3910 18 -111 48 -228 80
-310 30 -78 109 -231 141 -275 87 -119 120 -157 199 -234 83 -82 187 -159 283
-211 33 -18 66 -37 72 -43 7 -5 13 -6 13 -2 0 4 6 2 14 -4 28 -24 252 -97 326
-107 14 -2 52 -7 85 -13 70 -11 3856 -10 3895 2 13 3 42 9 63 12 113 17 285
80 410 150 111 62 112 62 193 127 264 211 430 479 506 819 l23 104 0 1920 c0
1056 -3 1943 -8 1971 -46 305 -188 587 -400 795 -66 65 -180 159 -193 159 -2
0 -14 8 -25 19 -61 56 -312 163 -459 195 -41 9 -88 19 -105 23 -41 10 -3850
12 -3900 3z"/>
</g>
</svg>
